<mxfile host="app.diagrams.net" modified="2021-09-26T11:02:27.312Z" agent="5.0 (Windows NT 10.0; Win64; x64) AppleWebKit/537.36 (KHTML, like Gecko) Chrome/93.0.4577.82 Safari/537.36" etag="fAzSonLl8AhfaB9zaLul" version="15.3.3" type="github">
  <diagram id="dROsLN-C-pgy_ikFZSet" name="Page-1">
    <mxGraphModel dx="1038" dy="547" grid="1" gridSize="10" guides="1" tooltips="1" connect="1" arrows="1" fold="1" page="1" pageScale="1" pageWidth="850" pageHeight="1100" math="0" shadow="0">
      <root>
        <mxCell id="0" />
        <mxCell id="1" parent="0" />
        <mxCell id="Nnb845mlixSABpUVtGpi-1" value="Menu" style="rounded=1;whiteSpace=wrap;html=1;" parent="1" vertex="1">
          <mxGeometry x="60" y="40" width="740" height="60" as="geometry" />
        </mxCell>
        <mxCell id="Nnb845mlixSABpUVtGpi-10" value="" style="rounded=1;whiteSpace=wrap;html=1;strokeWidth=2;fillWeight=4;hachureGap=8;hachureAngle=45;fillColor=#1ba1e2;sketch=1;" parent="1" vertex="1">
          <mxGeometry x="110" y="410" width="120" height="60" as="geometry" />
        </mxCell>
        <mxCell id="Nnb845mlixSABpUVtGpi-18" value="&lt;h1&gt;Heading&lt;/h1&gt;&lt;p&gt;Lorem ipsum dolor sit amet, consectetur adipisicing elit, sed do eiusmod tempor incididunt ut labore et dolore magna aliqua.&lt;/p&gt;" style="text;html=1;strokeColor=#432D57;fillColor=#76608a;spacing=5;spacingTop=-20;whiteSpace=wrap;overflow=hidden;rounded=0;align=center;fontColor=#ffffff;verticalAlign=middle;" parent="1" vertex="1">
          <mxGeometry x="60" y="110" width="730" height="210" as="geometry" />
        </mxCell>
        <mxCell id="Nnb845mlixSABpUVtGpi-19" value="&lt;b&gt;&lt;font style=&quot;font-size: 14px&quot;&gt;Logo&lt;/font&gt;&lt;/b&gt;" style="rounded=0;whiteSpace=wrap;html=1;align=center;gradientColor=#97d077;fillColor=#d5e8d4;strokeColor=#82b366;" parent="1" vertex="1">
          <mxGeometry x="60" y="50" width="60" height="40" as="geometry" />
        </mxCell>
        <mxCell id="Nnb845mlixSABpUVtGpi-20" value="" style="rounded=0;whiteSpace=wrap;html=1;align=center;verticalAlign=middle;gradientColor=#ea6b66;fillColor=#f8cecc;strokeColor=#b85450;" parent="1" vertex="1">
          <mxGeometry x="245" y="55" width="470" height="30" as="geometry" />
        </mxCell>
        <mxCell id="Nnb845mlixSABpUVtGpi-21" value="" style="rounded=1;whiteSpace=wrap;html=1;strokeWidth=2;fillWeight=4;hachureGap=8;hachureAngle=45;fillColor=#1ba1e2;sketch=1;" parent="1" vertex="1">
          <mxGeometry x="620" y="410" width="120" height="60" as="geometry" />
        </mxCell>
        <mxCell id="Nnb845mlixSABpUVtGpi-22" value="" style="rounded=1;whiteSpace=wrap;html=1;strokeWidth=2;fillWeight=4;hachureGap=8;hachureAngle=45;fillColor=#1ba1e2;sketch=1;" parent="1" vertex="1">
          <mxGeometry x="445" y="410" width="120" height="60" as="geometry" />
        </mxCell>
        <mxCell id="Nnb845mlixSABpUVtGpi-23" value="" style="rounded=1;whiteSpace=wrap;html=1;strokeWidth=2;fillWeight=4;hachureGap=8;hachureAngle=45;fillColor=#1ba1e2;sketch=1;" parent="1" vertex="1">
          <mxGeometry x="280" y="410" width="120" height="60" as="geometry" />
        </mxCell>
        <mxCell id="Nnb845mlixSABpUVtGpi-27" value="Subcribtion" style="text;html=1;strokeColor=#d79b00;fillColor=#ffcd28;align=center;verticalAlign=middle;whiteSpace=wrap;rounded=0;gradientColor=#ffa500;" parent="1" vertex="1">
          <mxGeometry x="205" y="250" width="440" height="20" as="geometry" />
        </mxCell>
        <mxCell id="Nnb845mlixSABpUVtGpi-28" value="" style="html=1;strokeWidth=1;shadow=0;dashed=0;shape=mxgraph.ios7.misc.text_size;fillColor=#007AFF;strokeColor=none;buttonText=;strokeColor2=#222222;fontColor=#222222;fontSize=8;verticalLabelPosition=bottom;verticalAlign=top;align=center;sketch=0;" parent="1" vertex="1">
          <mxGeometry x="360" y="280" width="25" height="20" as="geometry" />
        </mxCell>
        <mxCell id="Nnb845mlixSABpUVtGpi-29" value="" style="html=1;strokeWidth=1;shadow=0;dashed=0;shape=mxgraph.ios7.misc.text_size;fillColor=#007AFF;strokeColor=none;buttonText=;strokeColor2=#222222;fontColor=#222222;fontSize=8;verticalLabelPosition=bottom;verticalAlign=top;align=center;sketch=0;" parent="1" vertex="1">
          <mxGeometry x="400" y="280" width="25" height="20" as="geometry" />
        </mxCell>
        <mxCell id="Nnb845mlixSABpUVtGpi-30" value="" style="html=1;strokeWidth=1;shadow=0;dashed=0;shape=mxgraph.ios7.misc.text_size;fillColor=#007AFF;strokeColor=none;buttonText=;strokeColor2=#222222;fontColor=#222222;fontSize=8;verticalLabelPosition=bottom;verticalAlign=top;align=center;sketch=0;" parent="1" vertex="1">
          <mxGeometry x="445" y="280" width="20" height="20" as="geometry" />
        </mxCell>
        <mxCell id="Nnb845mlixSABpUVtGpi-34" value="" style="rounded=0;whiteSpace=wrap;html=1;align=center;verticalAlign=middle;" parent="1" vertex="1">
          <mxGeometry x="110" y="550" width="640" height="540" as="geometry" />
        </mxCell>
        <mxCell id="Nnb845mlixSABpUVtGpi-36" value="&lt;div style=&quot;font-size: 22px&quot;&gt;&lt;font style=&quot;font-size: 22px&quot;&gt;Ready to start learning marketing?&lt;/font&gt;&lt;/div&gt;&lt;div style=&quot;font-size: 22px&quot;&gt;&lt;font style=&quot;font-size: 22px&quot;&gt;Just follow the 4 steps belowâ€¦&lt;/font&gt;&lt;/div&gt;" style="text;html=1;strokeColor=none;fillColor=none;align=center;verticalAlign=middle;whiteSpace=wrap;rounded=0;" parent="1" vertex="1">
          <mxGeometry x="150" y="580" width="570" height="50" as="geometry" />
        </mxCell>
        <mxCell id="Nnb845mlixSABpUVtGpi-38" value="&lt;span style=&quot;font-size: 24px&quot;&gt;&lt;b&gt;Step #1&lt;/b&gt;&lt;/span&gt;&lt;h1&gt;&lt;span style=&quot;font-size: 12px ; font-weight: normal&quot;&gt;Lorem ipsum dolor sit amet, consectetur adipisicing elit,&lt;/span&gt;&lt;br&gt;&lt;/h1&gt;" style="text;html=1;strokeColor=none;fillColor=none;spacing=5;spacingTop=-20;whiteSpace=wrap;overflow=hidden;rounded=0;align=center;verticalAlign=middle;" parent="1" vertex="1">
          <mxGeometry x="190" y="710" width="190" height="120" as="geometry" />
        </mxCell>
        <mxCell id="Nnb845mlixSABpUVtGpi-39" value="&lt;span style=&quot;font-size: 24px&quot;&gt;&lt;b&gt;Step #1&lt;/b&gt;&lt;/span&gt;&lt;h1&gt;&lt;span style=&quot;font-size: 12px ; font-weight: normal&quot;&gt;Lorem ipsum dolor sit amet, consectetur adipisicing elit,&lt;/span&gt;&lt;br&gt;&lt;/h1&gt;" style="text;html=1;strokeColor=none;fillColor=none;spacing=5;spacingTop=-20;whiteSpace=wrap;overflow=hidden;rounded=0;align=center;verticalAlign=middle;" parent="1" vertex="1">
          <mxGeometry x="500" y="710" width="190" height="120" as="geometry" />
        </mxCell>
        <mxCell id="Nnb845mlixSABpUVtGpi-40" value="&lt;span style=&quot;font-size: 24px&quot;&gt;&lt;b&gt;Step #1&lt;/b&gt;&lt;/span&gt;&lt;h1&gt;&lt;span style=&quot;font-size: 12px ; font-weight: normal&quot;&gt;Lorem ipsum dolor sit amet, consectetur adipisicing elit,&lt;/span&gt;&lt;br&gt;&lt;/h1&gt;" style="text;html=1;strokeColor=none;fillColor=none;spacing=5;spacingTop=-20;whiteSpace=wrap;overflow=hidden;rounded=0;align=center;verticalAlign=middle;" parent="1" vertex="1">
          <mxGeometry x="180" y="870" width="190" height="120" as="geometry" />
        </mxCell>
        <mxCell id="Nnb845mlixSABpUVtGpi-41" value="&lt;span style=&quot;font-size: 24px&quot;&gt;&lt;b&gt;Step #1&lt;/b&gt;&lt;/span&gt;&lt;h1&gt;&lt;span style=&quot;font-size: 12px ; font-weight: normal&quot;&gt;Lorem ipsum dolor sit amet, consectetur adipisicing elit,&lt;/span&gt;&lt;br&gt;&lt;/h1&gt;" style="text;html=1;strokeColor=none;fillColor=none;spacing=5;spacingTop=-20;whiteSpace=wrap;overflow=hidden;rounded=0;align=center;verticalAlign=middle;" parent="1" vertex="1">
          <mxGeometry x="510" y="870" width="190" height="120" as="geometry" />
        </mxCell>
        <mxCell id="eW2xRldJq0Gkhzk0TydH-1" value="" style="rounded=0;whiteSpace=wrap;html=1;hachureGap=4;pointerEvents=0;" parent="1" vertex="1">
          <mxGeometry x="120" y="1400" width="640" height="280" as="geometry" />
        </mxCell>
        <mxCell id="eW2xRldJq0Gkhzk0TydH-2" value="&lt;h2 class=&quot;&quot; style=&quot;margin: 1.2em 0px 0.86em ; vertical-align: baseline ; padding: 0px ; border: 0px ; font-family: &amp;#34;soleil&amp;#34; , &amp;#34;raleway&amp;#34; , sans-serif ; letter-spacing: -0.02em ; font-size: 26px ; line-height: 1.5 ; background-color: rgb(255 , 255 , 255)&quot;&gt;Join My Weekly Newsletter&lt;/h2&gt;" style="text;html=1;strokeColor=none;fillColor=none;align=center;verticalAlign=middle;whiteSpace=wrap;rounded=0;hachureGap=4;pointerEvents=0;" parent="1" vertex="1">
          <mxGeometry x="175" y="1420" width="540" height="20" as="geometry" />
        </mxCell>
        <mxCell id="eW2xRldJq0Gkhzk0TydH-3" value="" style="rounded=1;whiteSpace=wrap;html=1;hachureGap=4;pointerEvents=0;fillColor=#f5f5f5;strokeColor=#666666;fontColor=#333333;" parent="1" vertex="1">
          <mxGeometry x="155" y="1500" width="560" height="30" as="geometry" />
        </mxCell>
        <mxCell id="eW2xRldJq0Gkhzk0TydH-4" value="" style="rounded=1;whiteSpace=wrap;html=1;hachureGap=4;pointerEvents=0;fillColor=#76608a;strokeColor=#432D57;fontColor=#ffffff;" parent="1" vertex="1">
          <mxGeometry x="150" y="1620" width="570" height="40" as="geometry" />
        </mxCell>
        <mxCell id="eW2xRldJq0Gkhzk0TydH-5" value="&lt;font color=&quot;#ffffff&quot;&gt;Submit&lt;/font&gt;" style="text;html=1;strokeColor=none;fillColor=none;align=center;verticalAlign=middle;whiteSpace=wrap;rounded=0;hachureGap=4;pointerEvents=0;" parent="1" vertex="1">
          <mxGeometry x="305" y="1630" width="260" height="20" as="geometry" />
        </mxCell>
        <mxCell id="eW2xRldJq0Gkhzk0TydH-6" value="" style="rounded=1;whiteSpace=wrap;html=1;hachureGap=4;pointerEvents=0;fillColor=#f5f5f5;strokeColor=#666666;fontColor=#333333;" parent="1" vertex="1">
          <mxGeometry x="155" y="1560" width="560" height="30" as="geometry" />
        </mxCell>
        <mxCell id="eW2xRldJq0Gkhzk0TydH-13" value="" style="rounded=0;whiteSpace=wrap;html=1;hachureGap=4;pointerEvents=0;" parent="1" vertex="1">
          <mxGeometry x="115" y="1140" width="650" height="190" as="geometry" />
        </mxCell>
        <mxCell id="eW2xRldJq0Gkhzk0TydH-14" value="" style="whiteSpace=wrap;html=1;aspect=fixed;hachureGap=4;pointerEvents=0;" parent="1" vertex="1">
          <mxGeometry x="180" y="1220" width="80" height="80" as="geometry" />
        </mxCell>
        <mxCell id="eW2xRldJq0Gkhzk0TydH-15" value="" style="whiteSpace=wrap;html=1;aspect=fixed;hachureGap=4;pointerEvents=0;" parent="1" vertex="1">
          <mxGeometry x="332.5" y="1220" width="80" height="80" as="geometry" />
        </mxCell>
        <mxCell id="eW2xRldJq0Gkhzk0TydH-16" value="" style="whiteSpace=wrap;html=1;aspect=fixed;hachureGap=4;pointerEvents=0;" parent="1" vertex="1">
          <mxGeometry x="485" y="1220" width="80" height="80" as="geometry" />
        </mxCell>
        <mxCell id="eW2xRldJq0Gkhzk0TydH-17" value="" style="whiteSpace=wrap;html=1;aspect=fixed;hachureGap=4;pointerEvents=0;" parent="1" vertex="1">
          <mxGeometry x="630" y="1220" width="80" height="80" as="geometry" />
        </mxCell>
        <mxCell id="eW2xRldJq0Gkhzk0TydH-18" value="&lt;b&gt;&lt;font style=&quot;font-size: 24px&quot;&gt;Last Blog&lt;/font&gt;&lt;/b&gt;" style="text;html=1;strokeColor=none;fillColor=none;align=center;verticalAlign=middle;whiteSpace=wrap;rounded=0;hachureGap=4;pointerEvents=0;" parent="1" vertex="1">
          <mxGeometry x="342.5" y="1160" width="185" height="20" as="geometry" />
        </mxCell>
        <mxCell id="J4aSVnnl-bqiafbho1c7-1" value="" style="rounded=0;whiteSpace=wrap;html=1;hachureGap=4;pointerEvents=0;" vertex="1" parent="1">
          <mxGeometry x="120" y="1740" width="640" height="220" as="geometry" />
        </mxCell>
        <mxCell id="J4aSVnnl-bqiafbho1c7-5" value="Main Negivation" style="text;html=1;strokeColor=none;fillColor=none;align=center;verticalAlign=middle;whiteSpace=wrap;rounded=0;hachureGap=4;pointerEvents=0;" vertex="1" parent="1">
          <mxGeometry x="345" y="1780" width="120" height="20" as="geometry" />
        </mxCell>
        <mxCell id="J4aSVnnl-bqiafbho1c7-6" value="&lt;h1&gt;Neil Raihan&lt;/h1&gt;&lt;p&gt;like neil patel .....&lt;/p&gt;" style="text;html=1;strokeColor=none;fillColor=none;spacing=5;spacingTop=-20;whiteSpace=wrap;overflow=hidden;rounded=0;hachureGap=4;pointerEvents=0;" vertex="1" parent="1">
          <mxGeometry x="152.5" y="1770" width="190" height="120" as="geometry" />
        </mxCell>
        <mxCell id="J4aSVnnl-bqiafbho1c7-8" value="" style="html=1;strokeWidth=1;shadow=0;dashed=0;shape=mxgraph.ios7.misc.text_size;fillColor=#007AFF;strokeColor=none;buttonText=;strokeColor2=#222222;fontColor=#222222;fontSize=8;verticalLabelPosition=bottom;verticalAlign=top;align=center;sketch=0;hachureGap=4;pointerEvents=0;" vertex="1" parent="1">
          <mxGeometry x="557.5" y="1790" width="30" height="30" as="geometry" />
        </mxCell>
        <mxCell id="J4aSVnnl-bqiafbho1c7-9" value="" style="html=1;strokeWidth=1;shadow=0;dashed=0;shape=mxgraph.ios7.misc.text_size;fillColor=#007AFF;strokeColor=none;buttonText=;strokeColor2=#222222;fontColor=#222222;fontSize=8;verticalLabelPosition=bottom;verticalAlign=top;align=center;sketch=0;hachureGap=4;pointerEvents=0;" vertex="1" parent="1">
          <mxGeometry x="612.5" y="1790" width="30" height="30" as="geometry" />
        </mxCell>
        <mxCell id="J4aSVnnl-bqiafbho1c7-10" value="" style="html=1;strokeWidth=1;shadow=0;dashed=0;shape=mxgraph.ios7.misc.text_size;fillColor=#007AFF;strokeColor=none;buttonText=;strokeColor2=#222222;fontColor=#222222;fontSize=8;verticalLabelPosition=bottom;verticalAlign=top;align=center;sketch=0;hachureGap=4;pointerEvents=0;" vertex="1" parent="1">
          <mxGeometry x="667.5" y="1790" width="30" height="30" as="geometry" />
        </mxCell>
        <mxCell id="J4aSVnnl-bqiafbho1c7-12" value="Sign in" style="rounded=1;whiteSpace=wrap;html=1;hachureGap=4;pointerEvents=0;fillColor=#e51400;strokeColor=#B20000;fontColor=#ffffff;" vertex="1" parent="1">
          <mxGeometry x="555" y="1880" width="142.5" height="40" as="geometry" />
        </mxCell>
        <mxCell id="J4aSVnnl-bqiafbho1c7-13" value="Text" style="text;html=1;strokeColor=none;fillColor=none;align=center;verticalAlign=middle;whiteSpace=wrap;rounded=0;hachureGap=4;pointerEvents=0;" vertex="1" parent="1">
          <mxGeometry x="355" y="1820" width="40" height="20" as="geometry" />
        </mxCell>
        <mxCell id="J4aSVnnl-bqiafbho1c7-14" value="Text" style="text;html=1;strokeColor=none;fillColor=none;align=center;verticalAlign=middle;whiteSpace=wrap;rounded=0;hachureGap=4;pointerEvents=0;" vertex="1" parent="1">
          <mxGeometry x="355" y="1850" width="40" height="20" as="geometry" />
        </mxCell>
        <mxCell id="J4aSVnnl-bqiafbho1c7-15" value="Text" style="text;html=1;strokeColor=none;fillColor=none;align=center;verticalAlign=middle;whiteSpace=wrap;rounded=0;hachureGap=4;pointerEvents=0;" vertex="1" parent="1">
          <mxGeometry x="355" y="1880" width="40" height="20" as="geometry" />
        </mxCell>
        <mxCell id="J4aSVnnl-bqiafbho1c7-16" value="Text" style="text;html=1;strokeColor=none;fillColor=none;align=center;verticalAlign=middle;whiteSpace=wrap;rounded=0;hachureGap=4;pointerEvents=0;" vertex="1" parent="1">
          <mxGeometry x="355" y="1910" width="40" height="20" as="geometry" />
        </mxCell>
        <mxCell id="J4aSVnnl-bqiafbho1c7-19" value="&lt;b&gt;&lt;font style=&quot;font-size: 14px&quot;&gt;Sign in&lt;/font&gt;&lt;/b&gt;" style="rounded=0;whiteSpace=wrap;html=1;align=center;fillColor=#e51400;strokeColor=#B20000;fontColor=#ffffff;" vertex="1" parent="1">
          <mxGeometry x="730" y="55" width="60" height="30" as="geometry" />
        </mxCell>
      </root>
    </mxGraphModel>
  </diagram>
</mxfile>
